<?xml version="1.0" standalone="no"?>
<!DOCTYPE svg PUBLIC "-//W3C//DTD SVG 20010904//EN"
 "http://www.w3.org/TR/2001/REC-SVG-20010904/DTD/svg10.dtd">
<svg version="1.0" xmlns="http://www.w3.org/2000/svg"
 width="1000.000000pt" height="1000.000000pt" viewBox="0 0 1000.000000 1000.000000"
 preserveAspectRatio="xMidYMid meet">
<metadata>
Created by potrace 1.11, written by Peter Selinger 2001-2013
</metadata>
<g transform="translate(0.000000,1000.000000) scale(0.100000,-0.100000)"
fill="#000000" stroke="none">
<path d="M0 5000 l0 -5000 5000 0 5000 0 0 5000 0 5000 -5000 0 -5000 0 0
-5000z m9470 0 l0 -4470 -4470 0 -4470 0 0 4470 0 4470 4470 0 4470 0 0 -4470z"/>
<path d="M1050 7765 l0 -1185 1315 0 1315 0 0 -130 0 -130 -1315 0 -1315 0 0
-530 0 -530 1845 0 1845 0 0 1185 0 1185 -1315 0 -1315 0 0 130 0 130 1313 2
1312 3 3 528 2 527 -1845 0 -1845 0 0 -1185z"/>
<path d="M5260 7105 l0 -1845 660 0 660 0 0 -195 0 -195 525 0 525 0 0 195 0
195 660 0 660 0 0 1845 0 1845 -1845 0 -1845 0 0 -1845z m2630 0 l0 -785 -130
0 -130 0 0 195 0 195 -525 0 -525 0 0 -195 0 -195 -130 0 -130 0 0 785 0 785
785 0 785 0 0 -785z"/>
<path d="M1060 2900 l0 -1840 655 0 655 0 0 -200 0 -200 525 0 525 0 0 200 0
200 655 0 655 0 0 1840 0 1840 -1835 0 -1835 0 0 -1840z m2630 0 l0 -790 -135
0 -135 0 0 195 0 195 -525 0 -525 0 0 -195 0 -195 -135 0 -135 0 0 790 0 790
795 0 795 0 0 -790z"/>
<path d="M5260 3555 l0 -1185 1315 0 1315 0 0 -130 0 -130 -1315 0 -1315 0 0
-525 0 -525 1845 0 1845 0 0 1180 0 1180 -1315 0 -1315 0 0 135 0 135 1315 0
1315 0 0 525 0 525 -1845 0 -1845 0 0 -1185z"/>
</g>
</svg>
